<svg viewBox="0 0 128 128" xmlns="http://www.w3.org/2000/svg"><g clip-rule="evenodd"><path fill="none" d="M0 0h128v128H0z"/><path d="M58.725 32.316c2.416 3.319 3.627 7.284 3.627 11.909 0 4.759-1.212 8.598-3.658 11.493-1.37 1.619-3.379 3.103-6.036 4.44 4.034 1.455 7.074 3.749 9.144 6.89 2.047 3.133 3.078 6.949 3.078 11.434 0 4.626-1.174 8.776-3.53 12.444a21.688 21.688 0 01-5.599 6.14c-2.521 1.908-5.494 3.207-8.933 3.92-3.439.705-7.157 1.047-11.176 1.047H0V24h38.224c9.648.141 16.474 2.91 20.501 8.316zM15.767 37.55v17.218h19.236c3.424 0 6.216-.646 8.369-1.938 2.137-1.292 3.214-3.579 3.214-6.845 0-3.645-1.415-6.044-4.245-7.217-2.453-.809-5.569-1.218-9.355-1.218H15.767zm0 30.129V88.49h19.206c3.432 0 6.111-.46 8.015-1.374 3.469-1.708 5.2-4.945 5.2-9.741 0-4.069-1.671-6.853-5.035-8.375-1.881-.846-4.523-1.292-7.91-1.322H15.767zM112.7 45.502c4.087 1.797 7.451 4.648 10.1 8.538 2.416 3.43 3.966 7.41 4.674 11.931.414 2.643.579 6.474.512 11.456h-42.62c.256 5.784 2.273 9.845 6.126 12.169 2.333 1.448 5.14 2.175 8.437 2.175 3.469 0 6.307-.884 8.482-2.643 1.197-.958 2.25-2.279 3.153-3.972h15.616c-.414 3.415-2.31 6.897-5.667 10.432-5.238 5.606-12.576 8.412-22.006 8.412-7.789 0-14.66-2.361-20.598-7.098-5.968-4.729-8.933-12.436-8.933-23.098 0-10.001 2.687-17.671 8.053-23.009 5.381-5.323 12.342-8.004 20.914-8.004 5.095.001 9.678.906 13.757 2.711zM89.821 58.539c-2.16 2.198-3.522 5.175-4.079 8.932h26.363c-.278-4.009-1.648-7.039-4.072-9.125-2.453-2.071-5.471-3.103-9.084-3.103-3.912 0-6.968 1.099-9.128 3.296zm-8.03-21.19h33.897v-9.711H81.791v9.711z" fill="#fff" fill-rule="evenodd"/></g></svg>
