<svg viewBox="0 0 512 512" xmlns="http://www.w3.org/2000/svg"><path d="M92.2 263.7V50.8C92.2 23.6 110.8 5 138.1 5c90.3 0 180.6 0 270.9.1 5.7 0 11.7.9 17.2 2.4 14.9 4.2 23.9 16.2 23.5 34.3-.3 14-2.4 28.1-5 41.9-5.7 30.4-12.1 60.7-18.4 90.9-7.5 36.2-15.1 72.3-22.7 108.5-2.3 10.7-4.4 21.5-7.3 32.1-5.8 20.8-19.5 30.9-41 30.9-25.2 0-50.3.2-75.5-.1-5.8-.1-9.6 1.8-13.2 6.2-13.5 16.3-27.2 32.4-40.9 48.5-23.8 28.1-47.6 56.1-71.5 84.1-4.5 5.3-8.8 10.9-13.6 15.9-12.5 13.2-34.2 12.1-43.5-3.1-3.5-5.7-4.7-13.6-4.8-20.5-.4-37.2-.2-74.3-.2-111.5.1-33.9.1-67.9.1-101.9zm56.9 148.6c1-.6 1.5-.8 1.8-1.1 14.7-18.8 29.3-37.6 43.9-56.3 14.4-18.5 29-37 43.3-55.5 5.4-7 12.4-9.9 21.2-9.8 24.5.3 49 .1 73.5 0 8.9 0 14.8-4.4 16.5-12.3 3.9-19.1 7.7-38.2 11.4-57.3 2.3-12.1-4.1-19.8-16.3-19.9h-85c-13.6 0-20.7-7.1-20.7-20.6 0-3.7.1-7.3 0-11-.2-6.8 3.1-11.8 9-14.3 4.3-1.8 9.3-2.8 14-2.8 32.5-.2 65-.4 97.5 0 13 .2 17.7-7.4 19.5-15.9 3.9-18.2 7.4-36.5 11-54.8 2.4-12.3-3.1-18.8-15.7-18.8H165c-12.3 0-16 3.8-16 16.2v329c.1 1.5.1 3.1.1 5.2z" fill="#fff"/></svg>
